<?xml version="1.0" encoding="UTF-8"?>
<!DOCTYPE svg PUBLIC "-//W3C//DTD SVG 1.1//EN" "http://www.w3.org/Graphics/SVG/1.1/DTD/svg11.dtd">
<!-- Creator: CorelDRAW -->
<svg xmlns="http://www.w3.org/2000/svg" xml:space="preserve" width="499px" height="227px" version="1.1" style="shape-rendering:geometricPrecision; text-rendering:geometricPrecision; image-rendering:optimizeQuality; fill-rule:evenodd; clip-rule:evenodd"
viewBox="0 0 498.97 226.99"
 xmlns:xlink="http://www.w3.org/1999/xlink"
 xmlns:xodm="http://www.corel.com/coreldraw/odm/2003">
 <defs>
  <style type="text/css">
   <![CDATA[
    .fil0 {fill:none}
    .fil1 {fill:url(#id0)}
    .fil2 {fill:url(#id1)}
   ]]>
  </style>
  <linearGradient id="id0" gradientUnits="userSpaceOnUse" x1="6.39" y1="86.9" x2="201.26" y2="86.9">
   <stop offset="0" style="stop-opacity:1; stop-color:fuchsia"/>
   <stop offset="1" style="stop-opacity:1; stop-color:#E30066"/>
  </linearGradient>
  <linearGradient id="id1" gradientUnits="userSpaceOnUse" x1="160.51" y1="154.03" x2="492.57" y2="154.03">
   <stop offset="0" style="stop-opacity:1; stop-color:#FFD200"/>
   <stop offset="1" style="stop-opacity:1; stop-color:#FFC300"/>
  </linearGradient>
 </defs>
 <g id="????_x0020_1">
  <metadata id="CorelCorpID_0Corel-Layer"/>
  <rect class="fil0" width="498.97" height="226.99"/>
  <g id="_105553231178592">
   <path class="fil1" d="M95.57 154.4c6.05,-5.47 16.44,-11.49 21.98,-22.39 3.97,0.9 9.63,5.6 14.28,7.81 4.46,2.11 12.1,3.41 15.54,6.41 -8.1,3.14 -12.17,6.55 -23.23,8.66 -8.87,1.69 -20.16,2.47 -28.57,-0.49zm51.54 -74.43c0.45,4.58 3.33,7.73 5.17,9.96 -8.15,-0.69 -8.09,-5.67 -7.17,-12.5 0.19,0.21 0.5,0.2 0.6,0.62 0.1,0.41 0.42,0.47 0.54,0.64 0.13,0.17 0.72,1.03 0.86,1.28zm14.23 4.32c-3.59,-0.99 -8.65,-5.84 -4.84,-9.13 3.16,-2.72 5.02,5.3 4.84,9.13zm-26.22 -3.99c-3.77,-3.78 -4.55,-8.94 -1.89,-13.93 2.01,-3.76 4.59,-3.9 5.94,-5.27 2.44,-2.46 1.17,-8.2 -5.32,-6.39 -8.32,2.32 -13.77,16.35 -8.58,26.88 2.56,5.21 7.12,8.61 12.88,11.27 6.13,2.82 9.46,7.79 19.2,5.48 22.86,-5.41 11.46,-41.81 -11.12,-31.95 -9.54,4.16 -6.79,8.3 -11.11,13.91zm-72.57 19.98c-1.46,-2.09 -1.94,-2.95 -1.46,-5.82 0.52,-3.06 1.45,-3.21 3.19,-3.86 3.32,3.35 2.33,7.79 -1.73,9.68zm12.32 -9.89l0.57 -0.34c4.73,4.67 2.9,11.01 -2.55,13.11 1.76,-5.84 1.74,-6.1 1.98,-12.77zm-3.08 -11.36c-25.05,-2.82 -26.36,35.85 -0.59,33.63 9.8,-0.85 22.52,-17.17 24.15,-24.55 2.64,-11.91 -6.62,-24.69 -17.24,-24.37 -4.45,0.13 -6.02,4.06 -4.13,6.74 1.42,2.01 5.48,1.29 9,4.15 4.15,3.37 5.15,8.49 2.83,14.31 -4,-4.5 -5.55,-8.96 -14.02,-9.91zm89.37 -39.89l-0.48 1.65c-2.62,-1.82 -4.46,-3.57 -7.35,-5.42 -2.87,-1.84 -5.89,-3.2 -8.09,-5.11 1.44,-2.83 4.05,-3.84 7.25,-4.21l8.67 13.09zm-37.03 79.77l-0.4 -2.26c1.06,-1.32 -1.88,-1.34 2.34,-0.94 9.76,2.26 10.53,-5.25 14.09,-6.46 3.34,2.18 16.81,20.54 15.98,27.56 -7.17,1.07 -14.63,-1.99 -20.07,-4.69 -6.68,-3.32 -12,-4.14 -11.94,-13.21zm-40.14 30.22c0.29,-13.36 1.38,-20.5 6.31,-31.5 11.1,3.64 5.56,6.34 17.78,0.08 2.76,12.29 0.66,13.59 -6.17,20.15 -4.16,4 -9.85,10.27 -17.92,11.27zm12.66 -38.8c1.36,-6.77 16.08,-12.51 27.84,-9.83 10.85,2.48 7.45,8.29 2.11,5.83 -7.51,-3.45 -7.36,-4.08 -12.21,2.47 -2.08,-1.24 -4.5,-4.27 -8.92,-2.03 -2.89,1.47 -2.72,3.87 -5.77,5.56 -2.63,-0.96 -1.64,-0.46 -3.05,-2zm-21.52 35.31c-7.24,-1.19 -18.82,-17.22 -22.26,-25.37 -5.12,-12.15 -6.43,-26.45 -2.87,-40.35 13.48,-52.52 83.15,-65.98 115.25,-21.05 13.37,18.72 16.35,54.32 -0.75,71.68 -3.73,-3.29 -16.12,-44.88 -52.63,-39.07 -24.87,3.96 -35.02,27.17 -36.74,54.16zm-33.78 -94.42c-1.22,5.69 -3.15,12.49 -3.99,16.1 -7.87,33.9 -18.61,3.33 -21.05,-13.3 -1.26,-8.56 3.5,-8.73 12.34,-10.08 11.3,-1.73 14.94,-3.14 12.7,7.28zm10.67 -8.04c5.41,-0.11 5.81,-0.08 7.91,1.77l-11.56 14.45 3.65 -16.22zm134.78 11.24c-6.42,-2.74 -10.09,-7.22 -13.78,-12.8 -3.12,-4.73 -9.18,-13.1 -11.48,-18.79 8.75,-1.53 27.65,-8.98 29.73,0.34 1.49,6.64 4.24,34.98 -4.47,31.25zm12.18 -35.3c-2.73,-13.31 -7.52,-10.44 -19.66,-8.53 -12.56,1.99 -28,5.61 -32.57,7.95 -8.51,4.36 -10.21,8.1 -20.4,5.88 -8.53,-1.86 -18.11,-1.81 -26.65,-0.27 -8.35,1.5 -15.05,4.01 -21.81,7.62 -12.3,6.56 -6.86,4.65 -22.24,2.79 -5.23,-0.63 -24.96,1.39 -37.69,3.97 -9.83,2 -12.83,1.54 -11.11,11.77 1.68,9.99 7.33,25.24 8.97,30.99 1.8,6.26 2.54,15.75 10.89,14.15 6.03,-1.15 7.53,-8.4 13.28,-11.63 -0.08,16.03 -1.73,22.43 3.98,37.61 4.82,12.81 10.54,18.01 17.76,25.43 36.77,37.77 127.1,14.66 123.64,-55.29 -0.79,-15.98 -5.2,-21.1 -9.69,-33.06 4.71,1.68 10.83,6.56 15.24,7.63 15.37,3.75 9.46,-40.15 8.06,-47.01z"/>
   <path class="fil2" d="M222.73 104.57l-18.56 58.77c-3.11,-2.88 -13.8,-25.07 -17.11,-31.25 -4.94,-9.24 -8.93,-27.05 -21.76,-26.94 -7.07,3.72 -4.28,37.12 -4.09,47.81 0.3,16.62 0.9,33.57 1.13,50.09 0.05,3.93 -0.58,8.67 2,11.38 1.93,2.02 6.35,3.04 9.16,1.19 4.41,-2.89 2.94,-16.87 2.8,-22.92 -0.37,-15.86 -1.65,-35.31 -0.45,-51.04l15.59 25.76c3.54,5.42 11.5,23.04 19.13,20.53 5.57,-1.83 4.79,-9.26 6.04,-14.8 1.17,-5.2 2.72,-10.72 3.96,-15.92 1.57,-6.56 5.72,-28.6 8.65,-31.9 2.39,5.04 4.23,72.58 11.6,79.11 3.41,3.02 9.28,1.88 11.11,-2.06 1.98,-4.27 -0.01,-8.01 -1.25,-12.16 -4.82,-16.17 -7.41,-62.58 -7.94,-83.1 -0.27,-10.05 -1.67,-17.53 -12.7,-17.1 -4.17,3.72 -6.1,8.08 -7.31,14.55zm185.53 40.19c-2.59,7.9 -6.65,14.83 1.53,20.29 11.42,7.61 52.15,8.66 69.37,13.51 -1.81,6.87 -15.28,14.46 -22.54,18.64 -7.57,4.36 -24.46,6.41 -24.37,15.37 7.98,16.1 57.81,-20.25 60.07,-31.58 4.84,-24.28 -60.53,-14.31 -72.84,-25.43 0.55,-9.53 17.54,-15.37 27.15,-18.45 24.95,-8.02 27.43,-2.23 24.5,-16.99 -5.63,-2.28 -29.7,5.28 -36.41,7.62 -5.81,2.02 -10.6,3.94 -15.59,6.89 -6.61,3.91 -7.4,7.58 -10.87,10.13zm-121.15 -30.14c8.43,5.85 11.34,56.65 7.42,72.52 -5.06,20.51 -23.05,32.21 -20.06,-29.83 0.71,-14.82 4.6,-34.16 12.64,-42.69zm-5.3 101.86l3.56 0.11c22.21,-2.41 23.96,-33.01 23.96,-55.86 -0.01,-19.6 -2.25,-56.67 -22.18,-58.33 -15.17,-1.26 -18.45,7.75 -21.57,19.53 -2.92,11.07 -4.14,23.45 -4.51,35.34 -0.78,24.85 -3.18,53.73 20.74,59.21zm72.11 -2.62c3.4,-2.22 6.12,-5.43 9.18,-8.23 11.41,-10.46 29.09,-22.12 34.58,-38.01 5.9,-17.12 -7.16,-17.28 -9.49,-21.38l-22.34 -4.03c0.23,-5.86 15.31,-22.91 6.8,-29.83 -10.72,-8.7 -25.49,7.13 -31.69,6.6 -3.05,-8.63 1.97,-5.52 -4.61,-14.95 -12.74,-0.94 -10.54,2.54 -10.32,23.91 0.14,12.94 -8.39,9.32 -8.32,20.38 2.66,2.62 4.23,3 9.03,3.09l3.16 34.92c1.22,13.42 1.01,42.55 24.02,27.53zm4.12 -89.31c1.35,0.61 1.47,-1.18 0.74,1.65 -3.15,8.63 -11.89,19.05 -17.43,23.93l-0.02 -13.97c5.29,-2.69 10.45,-8.9 16.71,-11.61zm-10.46 76.93c-3.01,-1.94 -0.42,1.03 -2.92,-2.45l-2.52 -29.17c6.18,-4.27 11.61,-10.18 18.19,-13.69 6.84,-3.65 20.8,-4.24 24.67,2.81 5.6,12.13 -31.43,39.72 -37.42,42.5z"/>
  </g>
 </g>
</svg>
